<svg version="1.1" xmlns="http://www.w3.org/2000/svg" xmlns:xlink="http://www.w3.org/1999/xlink" style="display:none;">
   
<symbol id="dots" viewBox="0 0 16 16">
  <circle cx="4.5" cy="2.5" r=".3" />
  <circle cx="4.5" cy="5" r=".3"  />
  <circle cx="4.5" cy="7.5" r=".3"  />
  <circle cx="4.5" cy="10" r=".3"  />
  <circle cx="4.5" cy="12.5" r=".3"  />
  <circle cx="4.5" cy="15" r=".3"  />

  
  <circle cx="7.5" cy="2.5" r=".3" />
  <circle cx="7.5" cy="5" r=".3"  />
  <circle cx="7.5" cy="7.5" r=".3"  />
  <circle cx="7.5" cy="10" r=".3"  />
  <circle cx="7.5" cy="12.5" r=".3"  />
    <circle cx="7.5" cy="15" r=".3"  />

  <circle cx="10" cy="2.5" r=".3" />
  <circle cx="10" cy="5" r=".3"  />
  <circle cx="10" cy="7.5" r=".3"  />
  <circle cx="10" cy="10" r=".3"  />
  <circle cx="10" cy="12.5" r=".3"  />
    <circle cx="10" cy="15" r=".3"  />

  <circle cx="12.5" cy="2.5" r=".3" />
  <circle cx="12.5" cy="5" r=".3"  />
  <circle cx="12.5" cy="7.5" r=".3"  />
  <circle cx="12.5" cy="10" r=".3"  />
  <circle cx="12.5" cy="12.5" r=".3"  />
  <circle cx="12.5" cy="15" r=".3"  />

  <circle cx="15" cy="2.5" r=".3" />
  <circle cx="15" cy="5" r=".3"  />
  <circle cx="15" cy="7.5" r=".3"  />
  <circle cx="15" cy="10" r=".3"  />
  <circle cx="15" cy="12.5" r=".3"  />
  <circle cx="15" cy="15" r=".3"  />
</symbol>

<symbol id="circle" viewBox="0 0 94 94">
<g>
	<g>
		<path d="M47,94C21.084,94,0,72.916,0,47S21.084,0,47,0s47,21.084,47,47S72.916,94,47,94z M47,12.186
			c-19.196,0-34.814,15.618-34.814,34.814c0,19.195,15.618,34.814,34.814,34.814c19.195,0,34.814-15.619,34.814-34.814
			C81.814,27.804,66.195,12.186,47,12.186z"/>
	</g>
</g>
</symbol>

<symbol id="waves" viewBox="0 0 410.986 410.986">
<g>
	<g>
		<path d="M355.105,118.905c-14.799,0-22.337-6.899-28.988-12.986c-6.005-5.497-10.749-9.839-20.886-9.839
			c-10.137,0-14.881,4.342-20.887,9.839c-6.65,6.087-14.188,12.986-28.988,12.986c-14.8,0-22.337-6.899-28.988-12.986
			c-6.005-5.497-10.748-9.839-20.885-9.839c-10.136,0-14.879,4.342-20.884,9.839c-6.65,6.087-14.188,12.986-28.988,12.986
			c-14.798,0-22.334-6.899-28.984-12.986c-6.004-5.497-10.747-9.839-20.882-9.839c-10.136,0-14.879,4.342-20.884,9.839
			c-6.65,6.087-14.188,12.986-28.987,12.986c-14.8,0-22.338-6.899-28.989-12.986C20.88,100.422,16.137,96.08,6,96.08
			c-3.313,0-6-2.686-6-6c0-3.313,2.687-6,6-6c14.799,0,22.337,6.899,28.988,12.986c6.005,5.497,10.749,9.839,20.886,9.839
			c10.136,0,14.879-4.342,20.884-9.838c6.65-6.088,14.188-12.987,28.987-12.987c14.798,0,22.335,6.9,28.985,12.987
			c6.004,5.497,10.746,9.838,20.881,9.838c10.137,0,14.88-4.342,20.885-9.838c6.65-6.088,14.188-12.987,28.987-12.987
			c14.8,0,22.337,6.899,28.988,12.987c6.005,5.496,10.749,9.838,20.885,9.838c10.138,0,14.881-4.342,20.886-9.838
			c6.651-6.088,14.189-12.987,28.989-12.987s22.338,6.899,28.989,12.987c6.005,5.496,10.748,9.838,20.885,9.838
			c10.139,0,14.883-4.342,20.89-9.839c6.651-6.087,14.19-12.986,28.991-12.986c3.313,0,6,2.687,6,6c0,3.314-2.687,6-6,6
			c-10.139,0-14.883,4.342-20.89,9.839C377.445,112.006,369.907,118.905,355.105,118.905z"/>
	</g>
	<g>
		<path d="M355.105,170.905c-14.799,0-22.337-6.899-28.988-12.986c-6.005-5.497-10.749-9.839-20.886-9.839
			c-10.137,0-14.881,4.342-20.887,9.839c-6.65,6.087-14.188,12.986-28.988,12.986c-14.8,0-22.337-6.899-28.988-12.986
			c-6.005-5.497-10.748-9.839-20.885-9.839c-10.136,0-14.879,4.342-20.884,9.839c-6.65,6.087-14.188,12.986-28.988,12.986
			c-14.798,0-22.334-6.899-28.984-12.986c-6.004-5.497-10.747-9.839-20.882-9.839c-10.136,0-14.879,4.342-20.884,9.839
			c-6.65,6.087-14.188,12.986-28.987,12.986c-14.8,0-22.338-6.899-28.989-12.986C20.88,152.422,16.137,148.08,6,148.08
			c-3.313,0-6-2.686-6-6c0-3.313,2.687-6,6-6c14.799,0,22.337,6.899,28.988,12.986c6.005,5.497,10.749,9.839,20.886,9.839
			c10.136,0,14.879-4.342,20.884-9.838c6.65-6.088,14.188-12.987,28.987-12.987c14.798,0,22.335,6.9,28.985,12.987
			c6.004,5.497,10.746,9.838,20.881,9.838c10.137,0,14.88-4.342,20.885-9.838c6.65-6.088,14.188-12.987,28.987-12.987
			c14.8,0,22.337,6.899,28.988,12.987c6.005,5.496,10.749,9.838,20.885,9.838c10.138,0,14.881-4.342,20.886-9.838
			c6.651-6.088,14.189-12.987,28.989-12.987s22.338,6.899,28.989,12.987c6.005,5.496,10.748,9.838,20.885,9.838
			c10.139,0,14.883-4.342,20.89-9.839c6.651-6.087,14.19-12.986,28.991-12.986c3.313,0,6,2.687,6,6c0,3.314-2.687,6-6,6
			c-10.139,0-14.883,4.342-20.89,9.839C377.445,164.006,369.907,170.905,355.105,170.905z"/>
	</g>
	<g>
		<path d="M355.105,222.906c-14.799,0-22.337-6.899-28.988-12.986c-6.005-5.497-10.749-9.839-20.886-9.839
			c-10.137,0-14.881,4.342-20.887,9.838c-6.65,6.088-14.188,12.987-28.988,12.987c-14.8,0-22.337-6.899-28.988-12.987
			c-6.005-5.496-10.748-9.838-20.885-9.838c-10.136,0-14.879,4.342-20.884,9.838c-6.65,6.088-14.188,12.987-28.988,12.987
			c-14.798,0-22.334-6.899-28.984-12.987c-6.004-5.496-10.747-9.838-20.882-9.838c-10.136,0-14.879,4.342-20.884,9.838
			c-6.65,6.088-14.188,12.987-28.987,12.987c-14.8,0-22.338-6.899-28.989-12.987c-6.005-5.496-10.749-9.838-20.885-9.838
			c-3.313,0-6-2.687-6-6c0-3.314,2.687-6,6-6c14.799,0,22.337,6.899,28.988,12.986c6.005,5.497,10.749,9.839,20.886,9.839
			c10.136,0,14.879-4.342,20.884-9.839c6.65-6.087,14.188-12.986,28.987-12.986c14.798,0,22.335,6.899,28.985,12.987
			c6.004,5.496,10.746,9.838,20.881,9.838c10.137,0,14.88-4.342,20.885-9.839c6.65-6.087,14.188-12.986,28.987-12.986
			c14.8,0,22.337,6.899,28.988,12.986c6.005,5.497,10.749,9.839,20.885,9.839c10.138,0,14.881-4.342,20.886-9.839
			c6.651-6.087,14.189-12.986,28.989-12.986s22.338,6.899,28.989,12.986c6.005,5.497,10.748,9.839,20.885,9.839
			c10.139,0,14.883-4.342,20.89-9.839c6.651-6.087,14.19-12.986,28.991-12.986c3.313,0,6,2.686,6,6c0,3.313-2.687,6-6,6
			c-10.139,0-14.883,4.342-20.89,9.839C377.445,216.007,369.907,222.906,355.105,222.906z"/>
	</g>
	<g>
		<path d="M355.105,274.906c-14.799,0-22.337-6.899-28.988-12.986c-6.005-5.497-10.749-9.839-20.886-9.839
			c-10.137,0-14.881,4.342-20.887,9.838c-6.65,6.088-14.188,12.987-28.988,12.987c-14.8,0-22.337-6.899-28.988-12.987
			c-6.005-5.496-10.748-9.838-20.885-9.838c-10.136,0-14.879,4.342-20.884,9.838c-6.65,6.088-14.188,12.987-28.988,12.987
			c-14.798,0-22.334-6.899-28.984-12.987c-6.004-5.496-10.747-9.838-20.882-9.838c-10.136,0-14.879,4.342-20.884,9.838
			c-6.65,6.088-14.188,12.987-28.987,12.987c-14.8,0-22.338-6.899-28.989-12.987c-6.005-5.496-10.749-9.838-20.885-9.838
			c-3.313,0-6-2.687-6-6c0-3.314,2.687-6,6-6c14.799,0,22.337,6.899,28.988,12.986c6.005,5.497,10.749,9.839,20.886,9.839
			c10.136,0,14.879-4.342,20.884-9.839c6.65-6.087,14.188-12.986,28.987-12.986c14.798,0,22.335,6.899,28.985,12.987
			c6.004,5.496,10.746,9.838,20.881,9.838c10.137,0,14.88-4.342,20.885-9.839c6.65-6.087,14.188-12.986,28.987-12.986
			c14.8,0,22.337,6.899,28.988,12.986c6.005,5.497,10.749,9.839,20.885,9.839c10.138,0,14.881-4.342,20.886-9.839
			c6.651-6.087,14.189-12.986,28.989-12.986s22.338,6.899,28.989,12.986c6.005,5.497,10.748,9.839,20.885,9.839
			c10.139,0,14.883-4.342,20.89-9.839c6.651-6.087,14.19-12.986,28.991-12.986c3.313,0,6,2.686,6,6c0,3.313-2.687,6-6,6
			c-10.139,0-14.883,4.342-20.89,9.839C377.445,268.007,369.907,274.906,355.105,274.906z"/>
	</g>
	<g>
		<path d="M355.105,326.906c-14.799,0-22.337-6.899-28.988-12.986c-6.005-5.497-10.749-9.839-20.886-9.839
			c-10.137,0-14.881,4.342-20.887,9.838c-6.65,6.088-14.188,12.987-28.988,12.987c-14.8,0-22.337-6.899-28.988-12.987
			c-6.005-5.496-10.748-9.838-20.885-9.838c-10.136,0-14.879,4.342-20.884,9.838c-6.65,6.088-14.188,12.987-28.988,12.987
			c-14.798,0-22.334-6.899-28.984-12.987c-6.004-5.496-10.747-9.838-20.882-9.838c-10.136,0-14.879,4.342-20.884,9.838
			c-6.65,6.088-14.188,12.987-28.987,12.987c-14.8,0-22.338-6.899-28.989-12.987c-6.005-5.496-10.749-9.838-20.885-9.838
			c-3.313,0-6-2.687-6-6c0-3.315,2.687-6,6-6c14.799,0,22.337,6.899,28.988,12.986c6.005,5.497,10.749,9.839,20.886,9.839
			c10.136,0,14.879-4.342,20.884-9.839c6.65-6.087,14.188-12.986,28.987-12.986c14.798,0,22.335,6.899,28.985,12.987
			c6.004,5.496,10.746,9.838,20.881,9.838c10.137,0,14.88-4.342,20.885-9.839c6.65-6.087,14.188-12.986,28.987-12.986
			c14.8,0,22.337,6.899,28.988,12.986c6.005,5.497,10.749,9.839,20.885,9.839c10.138,0,14.881-4.342,20.886-9.839
			c6.651-6.087,14.189-12.986,28.989-12.986s22.338,6.899,28.989,12.986c6.005,5.497,10.748,9.839,20.885,9.839
			c10.139,0,14.883-4.342,20.89-9.839c6.651-6.087,14.19-12.986,28.991-12.986c3.313,0,6,2.685,6,6c0,3.313-2.687,6-6,6
			c-10.139,0-14.883,4.342-20.89,9.839C377.445,320.007,369.907,326.906,355.105,326.906z"/>
	</g>
</g>
</symbol>

<symbol id="email" viewBox="0 0 330.001 330.001">
<g id="XMLID_348_">
	<path id="XMLID_350_" d="M173.871,177.097c-2.641,1.936-5.756,2.903-8.87,2.903c-3.116,0-6.23-0.967-8.871-2.903L30,84.602
		L0.001,62.603L0,275.001c0.001,8.284,6.716,15,15,15L315.001,290c8.285,0,15-6.716,15-14.999V62.602l-30.001,22L173.871,177.097z"
		/>
	<polygon id="XMLID_351_" points="165.001,146.4 310.087,40.001 19.911,40 	"/>
</g>
</symbol>

<symbol id="phone" viewBox="0 0 53.942 53.942">
<path d="M53.364,40.908c-2.008-3.796-8.981-7.912-9.288-8.092c-0.896-0.51-1.831-0.78-2.706-0.78c-1.301,0-2.366,0.596-3.011,1.68
	c-1.02,1.22-2.285,2.646-2.592,2.867c-2.376,1.612-4.236,1.429-6.294-0.629L17.987,24.467c-2.045-2.045-2.233-3.928-0.632-6.291
	c0.224-0.309,1.65-1.575,2.87-2.596c0.778-0.463,1.312-1.151,1.546-1.995c0.311-1.123,0.082-2.444-0.652-3.731
	c-0.173-0.296-4.291-7.27-8.085-9.277c-0.708-0.375-1.506-0.573-2.306-0.573c-1.318,0-2.558,0.514-3.49,1.445L4.7,3.986
	c-4.014,4.013-5.467,8.562-4.321,13.52c0.956,4.132,3.742,8.529,8.282,13.068l14.705,14.705c5.746,5.746,11.224,8.66,16.282,8.66
	c0,0,0,0,0.001,0c3.72,0,7.188-1.581,10.305-4.698l2.537-2.537C54.033,45.163,54.383,42.833,53.364,40.908z"/>
</symbol>

<symbol id="twitter" viewBox="0 0 1024 1024">
  <path d="M880 112H144c-17.7 0-32 14.3-32 32v736c0 17.7 14.3 32 32 32h736c17.7 0 32-14.3 32-32V144c0-17.7-14.3-32-32-32zM727.3 401.7c.3 4.7.3 9.6.3 14.4 0 146.8-111.8 315.9-316.1 315.9-63 0-121.4-18.3-170.6-49.8 9 1 17.6 1.4 26.8 1.4 52 0 99.8-17.6 137.9-47.4-48.8-1-89.8-33-103.8-77 17.1 2.5 32.5 2.5 50.1-2a111 111 0 0 1-88.9-109v-1.4c14.7 8.3 32 13.4 50.1 14.1a111.13 111.13 0 0 1-49.5-92.4c0-20.7 5.4-39.6 15.1-56a315.28 315.28 0 0 0 229 116.1C492 353.1 548.4 292 616.2 292c32 0 60.8 13.4 81.1 35 25.1-4.7 49.1-14.1 70.5-26.7-8.3 25.7-25.7 47.4-48.8 61.1 22.4-2.4 44-8.6 64-17.3-15.1 22.2-34 41.9-55.7 57.6z"/>
</symbol>


<symbol id="behance" viewBox="0 0 1024 1024">
  <path d="M880 112H144c-17.7 0-32 14.3-32 32v736c0 17.7 14.3 32 32 32h736c17.7 0 32-14.3 32-32V144c0-17.7-14.3-32-32-32zM598.5 350.9h138.4v33.7H598.5v-33.7zM512 628.8a89.52 89.52 0 0 1-27 31c-11.8 8.2-24.9 14.2-38.8 17.7a167.4 167.4 0 0 1-44.6 5.7H236V342.1h161c16.3 0 31.1 1.5 44.6 4.3 13.4 2.8 24.8 7.6 34.4 14.1 9.5 6.5 17 15.2 22.3 26 5.2 10.7 7.9 24.1 7.9 40 0 17.2-3.9 31.4-11.7 42.9-7.9 11.5-19.3 20.8-34.8 28.1 21.1 6 36.6 16.7 46.8 31.7 10.4 15.2 15.5 33.4 15.5 54.8 0 17.4-3.3 32.3-10 44.8zM790.8 576H612.4c0 19.4 6.7 38 16.8 48 10.2 9.9 24.8 14.9 43.9 14.9 13.8 0 25.5-3.5 35.5-10.4 9.9-6.9 15.9-14.2 18.1-21.8h59.8c-9.6 29.7-24.2 50.9-44 63.7-19.6 12.8-43.6 19.2-71.5 19.2-19.5 0-37-3.2-52.7-9.3-15.1-5.9-28.7-14.9-39.9-26.5a121.2 121.2 0 0 1-25.1-41.2c-6.1-16.9-9.1-34.7-8.9-52.6 0-18.5 3.1-35.7 9.1-51.7 11.5-31.1 35.4-56 65.9-68.9 16.3-6.8 33.8-10.2 51.5-10 21 0 39.2 4 55 12.2a111.6 111.6 0 0 1 38.6 32.8c10.1 13.7 17.2 29.3 21.7 46.9 4.3 17.3 5.8 35.5 4.6 54.7zm-122-95.6c-10.8 0-19.9 1.9-26.9 5.6-7 3.7-12.8 8.3-17.2 13.6a48.4 48.4 0 0 0-9.1 17.4c-1.6 5.3-2.7 10.7-3.1 16.2H723c-1.6-17.3-7.6-30.1-15.6-39.1-8.4-8.9-21.9-13.7-38.6-13.7zm-248.5-10.1c8.7-6.3 12.9-16.7 12.9-31 .3-6.8-1.1-13.5-4.1-19.6-2.7-4.9-6.7-9-11.6-11.9a44.8 44.8 0 0 0-16.6-6c-6.4-1.2-12.9-1.8-19.3-1.7h-70.3v79.7h76.1c13.1.1 24.2-3.1 32.9-9.5zm11.8 72c-9.8-7.5-22.9-11.2-39.2-11.2h-81.8v94h80.2c7.5 0 14.4-.7 21.1-2.1s12.7-3.8 17.8-7.2c5.1-3.3 9.2-7.8 12.3-13.6 3-5.8 4.5-13.2 4.5-22.1 0-17.7-5-30.2-14.9-37.8z"/>
</symbol>

<symbol id="facebook" viewBox="0 0 1024 1024">
  <path d="M880 112H144c-17.7 0-32 14.3-32 32v736c0 17.7 14.3 32 32 32h736c17.7 0 32-14.3 32-32V144c0-17.7-14.3-32-32-32zm-92.4 233.5h-63.9c-50.1 0-59.8 23.8-59.8 58.8v77.1h119.6l-15.6 120.7h-104V912H539.2V602.2H434.9V481.4h104.3v-89c0-103.3 63.1-159.6 155.3-159.6 44.2 0 82.1 3.3 93.2 4.8v107.9z"/>
</symbol>

<symbol id="linkedin" viewBox="0 0 1024 1024">
  <path d="M880 112H144c-17.7 0-32 14.3-32 32v736c0 17.7 14.3 32 32 32h736c17.7 0 32-14.3 32-32V144c0-17.7-14.3-32-32-32zM349.3 793.7H230.6V411.9h118.7v381.8zm-59.3-434a68.8 68.8 0 1 1 68.8-68.8c-.1 38-30.9 68.8-68.8 68.8zm503.7 434H675.1V608c0-44.3-.8-101.2-61.7-101.2-61.7 0-71.2 48.2-71.2 98v188.9H423.7V411.9h113.8v52.2h1.6c15.8-30 54.5-61.7 112.3-61.7 120.2 0 142.3 79.1 142.3 181.9v209.4z"/>
</symbol>

<symbol id="location" viewBox="0 0 264.018 264.018">
<g>
	<path d="M132.009,0c-42.66,0-77.366,34.706-77.366,77.366c0,11.634,2.52,22.815,7.488,33.24c0.1,0.223,0.205,0.442,0.317,0.661
		l58.454,113.179c2.146,4.154,6.431,6.764,11.106,6.764c4.676,0,8.961-2.609,11.106-6.764l58.438-113.148
		c0.101-0.195,0.195-0.392,0.285-0.591c5.001-10.455,7.536-21.67,7.536-33.341C209.375,34.706,174.669,0,132.009,0z
		 M132.009,117.861c-22.329,0-40.495-18.166-40.495-40.495c0-22.328,18.166-40.494,40.495-40.494s40.495,18.166,40.495,40.494
		C172.504,99.695,154.338,117.861,132.009,117.861z"/>
	<path d="M161.81,249.018h-59.602c-4.143,0-7.5,3.357-7.5,7.5c0,4.143,3.357,7.5,7.5,7.5h59.602c4.143,0,7.5-3.357,7.5-7.5
		C169.31,252.375,165.952,249.018,161.81,249.018z"/>
</g>
</symbol>

</svg>

