<svg version="1.1" xmlns="http://www.w3.org/2000/svg" xmlns:xlink="http://www.w3.org/1999/xlink" style="display:none;">
   
<symbol id="dots" viewBox="0 0 16 16">
  <circle cx="4.5" cy="2.5" r=".3" />
  <circle cx="4.5" cy="5" r=".3"  />
  <circle cx="4.5" cy="7.5" r=".3"  />
  <circle cx="4.5" cy="10" r=".3"  />
  <circle cx="4.5" cy="12.5" r=".3"  />
  <circle cx="4.5" cy="15" r=".3"  />

  
  <circle cx="7.5" cy="2.5" r=".3" />
  <circle cx="7.5" cy="5" r=".3"  />
  <circle cx="7.5" cy="7.5" r=".3"  />
  <circle cx="7.5" cy="10" r=".3"  />
  <circle cx="7.5" cy="12.5" r=".3"  />
    <circle cx="7.5" cy="15" r=".3"  />

  <circle cx="10" cy="2.5" r=".3" />
  <circle cx="10" cy="5" r=".3"  />
  <circle cx="10" cy="7.5" r=".3"  />
  <circle cx="10" cy="10" r=".3"  />
  <circle cx="10" cy="12.5" r=".3"  />
    <circle cx="10" cy="15" r=".3"  />

  <circle cx="12.5" cy="2.5" r=".3" />
  <circle cx="12.5" cy="5" r=".3"  />
  <circle cx="12.5" cy="7.5" r=".3"  />
  <circle cx="12.5" cy="10" r=".3"  />
  <circle cx="12.5" cy="12.5" r=".3"  />
  <circle cx="12.5" cy="15" r=".3"  />

  <circle cx="15" cy="2.5" r=".3" />
  <circle cx="15" cy="5" r=".3"  />
  <circle cx="15" cy="7.5" r=".3"  />
  <circle cx="15" cy="10" r=".3"  />
  <circle cx="15" cy="12.5" r=".3"  />
  <circle cx="15" cy="15" r=".3"  />
</symbol>

<symbol id="circle" viewBox="0 0 94 94">
<g>
	<g>
		<path d="M47,94C21.084,94,0,72.916,0,47S21.084,0,47,0s47,21.084,47,47S72.916,94,47,94z M47,12.186
			c-19.196,0-34.814,15.618-34.814,34.814c0,19.195,15.618,34.814,34.814,34.814c19.195,0,34.814-15.619,34.814-34.814
			C81.814,27.804,66.195,12.186,47,12.186z"/>
	</g>
</g>
</symbol>

<symbol id="waves" viewBox="0 0 410.986 410.986">
<g>
	<g>
		<path d="M355.105,118.905c-14.799,0-22.337-6.899-28.988-12.986c-6.005-5.497-10.749-9.839-20.886-9.839
			c-10.137,0-14.881,4.342-20.887,9.839c-6.65,6.087-14.188,12.986-28.988,12.986c-14.8,0-22.337-6.899-28.988-12.986
			c-6.005-5.497-10.748-9.839-20.885-9.839c-10.136,0-14.879,4.342-20.884,9.839c-6.65,6.087-14.188,12.986-28.988,12.986
			c-14.798,0-22.334-6.899-28.984-12.986c-6.004-5.497-10.747-9.839-20.882-9.839c-10.136,0-14.879,4.342-20.884,9.839
			c-6.65,6.087-14.188,12.986-28.987,12.986c-14.8,0-22.338-6.899-28.989-12.986C20.88,100.422,16.137,96.08,6,96.08
			c-3.313,0-6-2.686-6-6c0-3.313,2.687-6,6-6c14.799,0,22.337,6.899,28.988,12.986c6.005,5.497,10.749,9.839,20.886,9.839
			c10.136,0,14.879-4.342,20.884-9.838c6.65-6.088,14.188-12.987,28.987-12.987c14.798,0,22.335,6.9,28.985,12.987
			c6.004,5.497,10.746,9.838,20.881,9.838c10.137,0,14.88-4.342,20.885-9.838c6.65-6.088,14.188-12.987,28.987-12.987
			c14.8,0,22.337,6.899,28.988,12.987c6.005,5.496,10.749,9.838,20.885,9.838c10.138,0,14.881-4.342,20.886-9.838
			c6.651-6.088,14.189-12.987,28.989-12.987s22.338,6.899,28.989,12.987c6.005,5.496,10.748,9.838,20.885,9.838
			c10.139,0,14.883-4.342,20.89-9.839c6.651-6.087,14.19-12.986,28.991-12.986c3.313,0,6,2.687,6,6c0,3.314-2.687,6-6,6
			c-10.139,0-14.883,4.342-20.89,9.839C377.445,112.006,369.907,118.905,355.105,118.905z"/>
	</g>
	<g>
		<path d="M355.105,170.905c-14.799,0-22.337-6.899-28.988-12.986c-6.005-5.497-10.749-9.839-20.886-9.839
			c-10.137,0-14.881,4.342-20.887,9.839c-6.65,6.087-14.188,12.986-28.988,12.986c-14.8,0-22.337-6.899-28.988-12.986
			c-6.005-5.497-10.748-9.839-20.885-9.839c-10.136,0-14.879,4.342-20.884,9.839c-6.65,6.087-14.188,12.986-28.988,12.986
			c-14.798,0-22.334-6.899-28.984-12.986c-6.004-5.497-10.747-9.839-20.882-9.839c-10.136,0-14.879,4.342-20.884,9.839
			c-6.65,6.087-14.188,12.986-28.987,12.986c-14.8,0-22.338-6.899-28.989-12.986C20.88,152.422,16.137,148.08,6,148.08
			c-3.313,0-6-2.686-6-6c0-3.313,2.687-6,6-6c14.799,0,22.337,6.899,28.988,12.986c6.005,5.497,10.749,9.839,20.886,9.839
			c10.136,0,14.879-4.342,20.884-9.838c6.65-6.088,14.188-12.987,28.987-12.987c14.798,0,22.335,6.9,28.985,12.987
			c6.004,5.497,10.746,9.838,20.881,9.838c10.137,0,14.88-4.342,20.885-9.838c6.65-6.088,14.188-12.987,28.987-12.987
			c14.8,0,22.337,6.899,28.988,12.987c6.005,5.496,10.749,9.838,20.885,9.838c10.138,0,14.881-4.342,20.886-9.838
			c6.651-6.088,14.189-12.987,28.989-12.987s22.338,6.899,28.989,12.987c6.005,5.496,10.748,9.838,20.885,9.838
			c10.139,0,14.883-4.342,20.89-9.839c6.651-6.087,14.19-12.986,28.991-12.986c3.313,0,6,2.687,6,6c0,3.314-2.687,6-6,6
			c-10.139,0-14.883,4.342-20.89,9.839C377.445,164.006,369.907,170.905,355.105,170.905z"/>
	</g>
	<g>
		<path d="M355.105,222.906c-14.799,0-22.337-6.899-28.988-12.986c-6.005-5.497-10.749-9.839-20.886-9.839
			c-10.137,0-14.881,4.342-20.887,9.838c-6.65,6.088-14.188,12.987-28.988,12.987c-14.8,0-22.337-6.899-28.988-12.987
			c-6.005-5.496-10.748-9.838-20.885-9.838c-10.136,0-14.879,4.342-20.884,9.838c-6.65,6.088-14.188,12.987-28.988,12.987
			c-14.798,0-22.334-6.899-28.984-12.987c-6.004-5.496-10.747-9.838-20.882-9.838c-10.136,0-14.879,4.342-20.884,9.838
			c-6.65,6.088-14.188,12.987-28.987,12.987c-14.8,0-22.338-6.899-28.989-12.987c-6.005-5.496-10.749-9.838-20.885-9.838
			c-3.313,0-6-2.687-6-6c0-3.314,2.687-6,6-6c14.799,0,22.337,6.899,28.988,12.986c6.005,5.497,10.749,9.839,20.886,9.839
			c10.136,0,14.879-4.342,20.884-9.839c6.65-6.087,14.188-12.986,28.987-12.986c14.798,0,22.335,6.899,28.985,12.987
			c6.004,5.496,10.746,9.838,20.881,9.838c10.137,0,14.88-4.342,20.885-9.839c6.65-6.087,14.188-12.986,28.987-12.986
			c14.8,0,22.337,6.899,28.988,12.986c6.005,5.497,10.749,9.839,20.885,9.839c10.138,0,14.881-4.342,20.886-9.839
			c6.651-6.087,14.189-12.986,28.989-12.986s22.338,6.899,28.989,12.986c6.005,5.497,10.748,9.839,20.885,9.839
			c10.139,0,14.883-4.342,20.89-9.839c6.651-6.087,14.19-12.986,28.991-12.986c3.313,0,6,2.686,6,6c0,3.313-2.687,6-6,6
			c-10.139,0-14.883,4.342-20.89,9.839C377.445,216.007,369.907,222.906,355.105,222.906z"/>
	</g>
	<g>
		<path d="M355.105,274.906c-14.799,0-22.337-6.899-28.988-12.986c-6.005-5.497-10.749-9.839-20.886-9.839
			c-10.137,0-14.881,4.342-20.887,9.838c-6.65,6.088-14.188,12.987-28.988,12.987c-14.8,0-22.337-6.899-28.988-12.987
			c-6.005-5.496-10.748-9.838-20.885-9.838c-10.136,0-14.879,4.342-20.884,9.838c-6.65,6.088-14.188,12.987-28.988,12.987
			c-14.798,0-22.334-6.899-28.984-12.987c-6.004-5.496-10.747-9.838-20.882-9.838c-10.136,0-14.879,4.342-20.884,9.838
			c-6.65,6.088-14.188,12.987-28.987,12.987c-14.8,0-22.338-6.899-28.989-12.987c-6.005-5.496-10.749-9.838-20.885-9.838
			c-3.313,0-6-2.687-6-6c0-3.314,2.687-6,6-6c14.799,0,22.337,6.899,28.988,12.986c6.005,5.497,10.749,9.839,20.886,9.839
			c10.136,0,14.879-4.342,20.884-9.839c6.65-6.087,14.188-12.986,28.987-12.986c14.798,0,22.335,6.899,28.985,12.987
			c6.004,5.496,10.746,9.838,20.881,9.838c10.137,0,14.88-4.342,20.885-9.839c6.65-6.087,14.188-12.986,28.987-12.986
			c14.8,0,22.337,6.899,28.988,12.986c6.005,5.497,10.749,9.839,20.885,9.839c10.138,0,14.881-4.342,20.886-9.839
			c6.651-6.087,14.189-12.986,28.989-12.986s22.338,6.899,28.989,12.986c6.005,5.497,10.748,9.839,20.885,9.839
			c10.139,0,14.883-4.342,20.89-9.839c6.651-6.087,14.19-12.986,28.991-12.986c3.313,0,6,2.686,6,6c0,3.313-2.687,6-6,6
			c-10.139,0-14.883,4.342-20.89,9.839C377.445,268.007,369.907,274.906,355.105,274.906z"/>
	</g>
	<g>
		<path d="M355.105,326.906c-14.799,0-22.337-6.899-28.988-12.986c-6.005-5.497-10.749-9.839-20.886-9.839
			c-10.137,0-14.881,4.342-20.887,9.838c-6.65,6.088-14.188,12.987-28.988,12.987c-14.8,0-22.337-6.899-28.988-12.987
			c-6.005-5.496-10.748-9.838-20.885-9.838c-10.136,0-14.879,4.342-20.884,9.838c-6.65,6.088-14.188,12.987-28.988,12.987
			c-14.798,0-22.334-6.899-28.984-12.987c-6.004-5.496-10.747-9.838-20.882-9.838c-10.136,0-14.879,4.342-20.884,9.838
			c-6.65,6.088-14.188,12.987-28.987,12.987c-14.8,0-22.338-6.899-28.989-12.987c-6.005-5.496-10.749-9.838-20.885-9.838
			c-3.313,0-6-2.687-6-6c0-3.315,2.687-6,6-6c14.799,0,22.337,6.899,28.988,12.986c6.005,5.497,10.749,9.839,20.886,9.839
			c10.136,0,14.879-4.342,20.884-9.839c6.65-6.087,14.188-12.986,28.987-12.986c14.798,0,22.335,6.899,28.985,12.987
			c6.004,5.496,10.746,9.838,20.881,9.838c10.137,0,14.88-4.342,20.885-9.839c6.65-6.087,14.188-12.986,28.987-12.986
			c14.8,0,22.337,6.899,28.988,12.986c6.005,5.497,10.749,9.839,20.885,9.839c10.138,0,14.881-4.342,20.886-9.839
			c6.651-6.087,14.189-12.986,28.989-12.986s22.338,6.899,28.989,12.986c6.005,5.497,10.748,9.839,20.885,9.839
			c10.139,0,14.883-4.342,20.89-9.839c6.651-6.087,14.19-12.986,28.991-12.986c3.313,0,6,2.685,6,6c0,3.313-2.687,6-6,6
			c-10.139,0-14.883,4.342-20.89,9.839C377.445,320.007,369.907,326.906,355.105,326.906z"/>
	</g>
</g>
</symbol>

</svg>

